# xmcd
#
# Track frame offsets:
#	150
#	10160
#	32016
#	45822
#	60860
#	79099
#	99024
#	111458
#	126969
#	143673
#	155743
#	171053
#	186549
#	203041
#	222079
#
# Disc length: 3098 seconds
# Revision: 1
# Processed by: cddbd v1.5.2PL0 Copyright (c) Steve Scherf et al.
# Submitted via: dBpowerAMP V12.0
#
DISCID=bf0c180f
DTITLE=Pharis and Jason Romero - A Passing Glimpse
DYEAR=2011
DGENRE=Country
TTITLE0=Forsaken Love
TTITLE1=A Passing Glimpse
TTITLE2=My Flowers, My Companions and Me
TTITLE3=Where is the Gamblin' Man?
TTITLE4=Lay Down In Sorrow
TTITLE5=Hilbilly Blues
TTITLE6=Out On the Western Plains
TTITLE7=I'm Just Here To Get My Baby Out of Jail
TTITLE8=Dad's Song
TTITLE9=It's Me Again Lord
TTITLE10=Wait till the Clouds Roll By
TTITLE11=Cumberland Gap
TTITLE12=Engine 143
TTITLE13=Only Gold
TTITLE14=My Flowers, My Companions, and Me Reprise
EXTD=
EXTT0=
EXTT1=
EXTT2=
EXTT3=
EXTT4=
EXTT5=
EXTT6=
EXTT7=
EXTT8=
EXTT9=
EXTT10=
EXTT11=
EXTT12=
EXTT13=
EXTT14=
PLAYORDER=
